HIERARCHY
ROOT Hips
{
  OFFSET 0 0 0
  CHANNELS 6 Xposition Yposition Zposition Zrotation Yrotation Xrotation
  JOINT LeftThigh
  {
    OFFSET 8.409438 0 -5.917753
    CHANNELS 3 Zrotation Yrotation Xrotation
    JOINT LeftLeg
    {
      OFFSET 0 0 -42.358652
      CHANNELS 3 Zrotation Yrotation Xrotation
      JOINT LeftFoot
      {
        OFFSET 0 0 -39.357303
        CHANNELS 3 Zrotation Yrotation Xrotation
      }
    }
  }
  JOINT RightThigh
  {
    OFFSET -8.409438 0 -5.917753
    CHANNELS 3 Zrotation Yrotation Xrotation
    JOINT RightLeg
    {
      OFFSET 0 0 -42.358652
      CHANNELS 3 Zrotation Yrotation Xrotation
      JOINT RightFoot
      {
        OFFSET 0 0 -39.357303
        CHANNELS 3 Zrotation Yrotation Xrotation
      }
    }
  }
  JOINT SpineLow
  {
    OFFSET 0 0 4.719101
    CHANNELS 3 Zrotation Yrotation Xrotation
    JOINT SpineMid
    {
      OFFSET 0 0 12.899191
      CHANNELS 3 Zrotation Yrotation Xrotation
      JOINT Chest
      {
        OFFSET 0 0 12.899191
        CHANNELS 3 Zrotation Yrotation Xrotation
        JOINT LeftShoulder
        {
          OFFSET 7.550562 1.41573 9.438202
          CHANNELS 3 Zrotation Yrotation Xrotation
          JOINT LeftArm
          {
            OFFSET 9.155056 0 4.247191
            CHANNELS 3 Zrotation Yrotation Xrotation
            JOINT LeftForearm
            {
              OFFSET 0 0 25.771955
              CHANNELS 3 Zrotation Yrotation Xrotation
              JOINT LeftHand
              {
                OFFSET 0 0 25.197169
                CHANNELS 3 Zrotation Yrotation Xrotation
              }
            }
          }
        }
        JOINT RightShoulder
        {
          OFFSET -7.550562 1.41573 9.438202
          CHANNELS 3 Zrotation Yrotation Xrotation
          JOINT RightArm
          {
            OFFSET -9.155056 0 4.247191
            CHANNELS 3 Zrotation Yrotation Xrotation
            JOINT RightForearm
            {
              OFFSET 0 0 -25.771955
              CHANNELS 3 Zrotation Yrotation Xrotation
              JOINT RightHand
              {
                OFFSET 0 0 -25.197169
                CHANNELS 3 Zrotation Yrotation Xrotation
              }
            }
          }
        }
        JOINT Neck
        {
          OFFSET 0 0 15.101124
          CHANNELS 3 Zrotation Yrotation Xrotation
          JOINT Head
          {
            OFFSET 0 0 11.325843
            CHANNELS 3 Zrotation Yrotation Xrotation
            End Site
            {
              OFFSET 0 0 14.157303
            }
          }
        }
      }
    }
  }
}
MOTION
Frames: 13
Frame Time: 0.0
0.0  89.887642  0.0  -11.244052  60.408777  -99.950427  -38.952338  -13.293163  -13.759693  -15.085031  3.954  30.225336  5.008884  1.477352  4.407192  -38.552704  6.806439  10.745667  -17.274125  8.035745  7.355443  -3.398826  0.461799  -0.388597  3.169808  -2.188216  -0.03089  8.688956  -5.96536  -0.372324  8.688956  -5.96536  -0.372324  -1.844418  18.359166  10.662017  149.572256  6.418727  170.447897  -32.173933  41.314849  86.902417  57.879895  -16.733474  23.497725  -6.401449  12.066665  -0.630962  -98.009214  62.110536  -154.33599  -33.726698  10.389267  -113.126955  75.804943  13.30046  49.817333  -40.274802  4.310383  2.69437  -30.211332  3.070847  2.317092  
0.0  89.887642  0.0  -11.283297  60.555986  -99.966365  -39.123796  -13.263495  -13.855316  -14.944863  3.933358  30.487413  4.911104  1.454821  4.359183  -38.654162  6.830365  10.760397  -16.865378  7.993591  7.385039  -3.473429  0.416819  -0.370867  3.133837  -2.184546  -0.035237  8.590701  -5.955097  -0.380474  8.590701  -5.955097  -0.380474  -1.810735  18.361839  10.651129  149.752844  6.562271  170.491687  -32.058308  41.677587  86.68104  57.878176  -16.467437  23.418572  -6.385324  12.03979  -0.609882  -98.313665  62.054734  -154.454019  -33.834593  10.402729  -113.187208  75.875758  13.22078  49.593512  -40.419486  4.374309  2.647608  -30.319288  3.12163  2.287231  
0.0  89.887642  0.0  -11.303483  60.556344  -100.005046  -39.203939  -13.25656  -13.893745  -14.954248  3.995705  30.555073  4.948161  1.458133  4.381554  -38.523546  6.811151  10.814733  -17.000565  7.996164  7.347075  -3.532586  0.406664  -0.354282  3.121653  -2.186221  -0.028966  8.556785  -5.960586  -0.362442  8.556785  -5.960586  -0.362442  -1.855925  18.408233  10.58789  149.591076  6.58564  170.502573  -32.286218  41.969815  86.387428  57.913309  -16.376956  23.306715  -6.368703  12.041748  -0.601127  -98.228835  61.964765  -154.283345  -33.956911  10.524593  -113.187841  75.907946  13.266451  49.51028  -40.455492  4.410607  2.628876  -30.346042  3.150118  2.275817  
0.0  89.887642  0.0  -11.333068  60.593658  -100.04921  -39.239712  -13.346794  -13.881749  -14.749821  4.070461  30.687536  4.858253  1.421672  4.308246  -38.385304  6.79551  10.889074  -17.116767  7.985478  7.321615  -3.589402  0.350765  -0.345992  3.110825  -2.186025  -0.022912  8.526565  -5.960924  -0.344882  8.526565  -5.960924  -0.344882  -1.884839  18.397751  10.507904  149.388866  6.625752  170.515616  -32.467588  42.227358  86.108675  57.951518  -16.24349  23.218304  -6.395083  12.009782  -0.576879  -98.272836  61.851558  -154.073495  -34.069413  10.588716  -113.331247  75.962096  13.167229  49.483877  -40.684087  4.459087  2.583358  -30.516921  3.188918  2.246574  
0.0  89.887642  0.0  -11.320335  60.545255  -100.035503  -39.261374  -13.419731  -13.895209  -14.565881  4.120578  30.712414  4.824809  1.395341  4.308988  -38.306485  6.749271  10.887969  -17.303555  8.023866  7.278373  -3.579186  0.344512  -0.329164  3.105636  -2.184764  -0.021333  8.512178  -5.95773  -0.339929  8.512179  -5.95773  -0.339929  -1.951565  18.425978  10.455889  149.189872  6.696231  170.535586  -32.64299  42.394356  85.868659  57.992779  -16.165763  23.1741  -6.417448  12.004285  -0.544105  -98.064366  61.793242  -153.793607  -34.119313  10.668668  -113.315427  75.975814  13.118203  49.448079  -40.748415  4.471517  2.600959  -30.565246  3.196887  2.261187  
0.0  89.887642  0.0  -11.26355  60.503701  -99.99548  -38.976778  -13.543181  -13.823968  -14.365852  4.191615  30.712948  4.57982  1.315167  4.196991  -38.392123  6.823594  10.867623  -17.177362  8.041422  7.288021  -3.617018  0.303592  -0.320683  3.091772  -2.170649  -0.009171  8.472816  -5.920892  -0.303583  8.472816  -5.920892  -0.303583  -1.961408  18.343589  10.350778  149.040575  6.798744  170.565051  -32.675664  42.502274  85.710128  58.036619  -16.082113  23.167911  -6.386613  11.912176  -0.503903  -97.950925  61.757998  -153.560334  -34.128468  10.717018  -113.372814  76.038934  13.050671  49.43082  -40.85827  4.451176  2.632757  -30.6479  3.179028  2.284663  
0.0  89.887642  0.0  -11.204968  60.255824  -99.920465  -38.615211  -13.621654  -13.8193  -14.233822  4.192086  30.665575  4.484533  1.279931  4.190844  -38.39347  6.85253  10.791582  -17.153212  8.049458  7.287754  -3.608361  0.283744  -0.317542  3.112058  -2.165131  0.0038  8.527137  -5.907357  -0.269213  8.527137  -5.907357  -0.269213  -2.07845  18.323813  10.252746  148.888525  6.908594  170.633061  -32.698904  42.476825  85.644824  58.117151  -16.050646  23.196233  -6.484151  11.883962  -0.527908  -97.811408  61.77296  -153.425132  -34.14665  10.77043  -113.323496  76.079336  13.000155  49.506333  -40.925284  4.394577  2.643071  -30.698366  3.135416  2.289158  
0.0  89.887642  0.0  -11.094815  60.168299  -99.7919  -38.140075  -13.710048  -13.786305  -14.217365  4.249273  30.555348  4.252563  1.192364  4.080789  -38.71386  7.005514  10.616248  -16.938697  8.057824  7.361291  -3.582348  0.237618  -0.320526  3.086709  -2.139994  0.001741  8.457382  -5.838694  -0.269322  8.457382  -5.838694  -0.269322  -1.927913  18.12801  10.26861  148.738768  7.05459  170.753464  -32.559277  42.41083  85.614173  58.251568  -16.015244  23.218049  -6.391274  11.742275  -0.392278  -97.946437  61.818887  -153.467425  -34.142871  10.86126  -113.325626  76.183504  12.820146  49.539661  -40.919709  4.354137  2.725608  -30.694918  3.099377  2.348594  
0.0  89.887642  0.0  -11.038957  59.820271  -99.651437  -37.569628  -13.799652  -13.784727  -14.095429  4.178534  30.473539  4.073252  1.128212  4.055191  -38.892403  7.097535  10.381458  -16.720796  8.025105  7.460643  -3.532162  0.21103  -0.319813  3.112914  -2.139662  -0.004526  8.529728  -5.836795  -0.288739  8.529728  -5.836795  -0.288739  -2.062187  18.125171  10.302458  148.665473  7.237596  170.910501  -32.430868  42.222621  85.699739  58.420766  -15.995981  23.255926  -6.470899  11.748256  -0.299285  -97.941694  61.865048  -153.47369  -34.172005  10.872575  -113.259144  76.221679  12.763432  49.643873  -40.958362  4.315147  2.730198  -30.724021  3.069521  2.349727  
0.0  89.887642  0.0  -10.887437  59.622558  -99.409424  -37.168389  -13.800269  -13.817773  -14.101214  4.105541  30.293783  3.948706  1.088538  4.061987  -39.341455  7.285591  10.05209  -16.640406  7.959257  7.554843  -3.254408  0.215412  -0.31391  3.078261  -2.112743  -0.016003  8.435265  -5.762141  -0.313584  8.435264  -5.762141  -0.313583  -1.982478  18.027387  10.312651  148.666055  7.506915  171.098195  -32.224105  42.022599  85.759199  58.648952  -15.95905  23.288423  -6.233806  11.607117  -0.073746  -98.291167  61.900857  -153.648326  -34.157901  10.853657  -113.258221  76.252222  12.688531  49.66486  -40.825925  4.260105  2.812009  -30.625483  3.023006  2.406653  
0.0  89.887642  0.0  -10.770348  59.048529  -99.267902  -36.38926  -13.825092  -13.71933  -14.056181  4.010029  30.165151  3.807093  1.041807  4.041015  -39.457045  7.419445  9.761116  -16.265909  7.949436  7.748466  -3.176912  0.210199  -0.299083  3.114511  -2.11827  -0.014873  8.53459  -5.777086  -0.314384  8.534591  -5.777087  -0.314384  -2.059213  18.08136  10.336149  148.647794  7.737157  171.253679  -32.018566  41.726182  85.90619  58.907669  -15.916092  23.370503  -6.216952  11.623775  0.114152  -98.271957  61.937226  -153.632305  -34.190243  10.860014  -113.195662  76.22002  12.6686  49.686568  -40.768252  4.237941  2.813878  -30.582308  3.00639  2.40613  
0.0  89.887642  0.0  -10.567365  58.715909  -99.050657  -36.088418  -13.691793  -13.733058  -14.075672  3.896116  30.017276  3.806596  1.034949  4.094558  -39.972366  7.702657  9.340098  -15.750592  7.884721  8.014459  -2.936251  0.208598  -0.266143  3.070206  -2.088227  -0.01656  8.412769  -5.695247  -0.311249  8.412769  -5.695246  -0.311249  -1.730226  17.906742  10.380204  148.613156  8.117035  171.554787  -31.728774  41.448603  85.863452  59.203485  -15.852824  23.399094  -5.739581  11.392848  0.478536  -98.838777  61.939554  -153.889149  -34.228636  10.948821  -113.197855  76.247009  12.574399  49.6733  -40.503574  4.179399  2.919026  -30.384779  2.956259  2.479438  
0.0  89.887642  0.0  -10.459279  58.009324  -98.914098  -35.251491  -13.740293  -13.60258  -14.057169  3.814337  29.896823  3.702866  1.012823  4.077282  -40.152398  7.829233  8.922715  -15.246844  7.895022  8.328405  -2.826686  0.210793  -0.248215  3.104798  -2.099297  -0.01497  8.507617  -5.725388  -0.311329  8.507616  -5.725389  -0.311329  -1.743108  17.965404  10.374957  148.570259  8.358282  171.756296  -31.483061  41.015794  86.02851  59.550199  -15.74763  23.419835  -5.715772  11.419407  0.694578  -98.692962  62.008311  -153.785181  -34.28166  10.987194  -113.148799  76.242773  12.594406  49.669763  -40.356086  4.171803  2.913289  -30.274183  2.951513  2.473491  
